<svg xmlns="http://www.w3.org/2000/svg" width="0" height="0">
    <symbol id="btn-prev" viewBox="0 0 24 24">
        <path d="M12 24a12 12 0 1 1 12-12 12.013 12.013 0 0 1-12 12zm0-22a10 10 0 1 0 10 10A10.011 10.011 0 0 0 12 2z"></path>
        <path d="M10.293 16.707 5.586 12l4.707-4.707 1.414 1.414L8.414 12l3.293 3.293-1.414 1.414z"></path>
        <path d="M7 11h11v2H7z"></path>
    </symbol>
    <symbol id="btn-next" viewBox="0 0 24 24">
        <path d="M12 24a12 12 0 1 1 12-12 12.013 12.013 0 0 1-12 12zm0-22a10 10 0 1 0 10 10A10.011 10.011 0 0 0 12 2z"></path>
        <path d="m13.707 16.707-1.414-1.414L15.586 12l-3.293-3.293 1.414-1.414L18.414 12l-4.707 4.707z"></path>
        <path d="M6 11h11v2H6z"></path>
    </symbol>
    <symbol id="close" viewBox="0 0 384 512">
        <path d="M342.6 150.6c12.5-12.5 12.5-32.8 0-45.3s-32.8-12.5-45.3 0L192 210.7 86.6 105.4c-12.5-12.5-32.8-12.5-45.3 0s-12.5 32.8 0 45.3L146.7 256 41.4 361.4c-12.5 12.5-12.5 32.8 0 45.3s32.8 12.5 45.3 0L192 301.3 297.4 406.6c12.5 12.5 32.8 12.5 45.3 0s12.5-32.8 0-45.3L237.3 256 342.6 150.6z"/>
    </symbol>
    <symbol id="down" viewBox="0 0 320 512">
        <path d="M2 334.5c-3.8 8.8-2 19 4.6 26l136 144c4.5 4.8 10.8 7.5 17.4 7.5s12.9-2.7 17.4-7.5l136-144c6.6-7 8.4-17.2 4.6-26s-12.5-14.5-22-14.5l-72 0 0-288c0-17.7-14.3-32-32-32L128 0C110.3 0 96 14.3 96 32l0 288-72 0c-9.6 0-18.2 5.7-22 14.5z"/>
    </symbol>
    <symbol id="cpu" viewBox="0 0 46 46" >
        <path d="M34.3135 39H7V11.5381L11.3984 7H39V33.3643L34.3135 39ZM9 37H33.376L37 32.6416V9H12.2461L9 12.3486V37Z"/>
        <path d="M30 33.5H16C14.3457 33.5 13 32.1543 13 30.5V16.5C13 14.8457 14.3457 13.5 16 13.5H30C31.6543 13.5 33 14.8457 33 16.5V30.5C33 32.1543 31.6543 33.5 30 33.5ZM16 15.5C15.4482 15.5 15 15.9487 15 16.5V30.5C15 31.0513 15.4482 31.5 16 31.5H30C30.5518 31.5 31 31.0513 31 30.5V16.5C31 15.9487 30.5518 15.5 30 15.5H16Z"/>
        <path d="M46 14.5H39V16.5H46V14.5Z"/>
        <path d="M46 19.5H39V21.5H46V19.5Z"/>
        <path d="M46 24.5H39V26.5H46V24.5Z"/>
        <path d="M46 29.5H39V31.5H46V29.5Z"/>
        <path d="M7 14.5H0V16.5H7V14.5Z"/>
        <path d="M7 19.5H0V21.5H7V19.5Z"/>
        <path d="M7 24.5H0V26.5H7V24.5Z"/>
        <path d="M7 29.5H0V31.5H7V29.5Z"/>
        <path d="M31.5 0H29.5V7H31.5V0Z"/>
        <path d="M26.5 0H24.5V7H26.5V0Z"/>
        <path d="M21.5 0H19.5V7H21.5V0Z"/>
        <path d="M16.5 0H14.5V7H16.5V0Z"/>
        <path d="M31.5 39H29.5V46H31.5V39Z"/>
        <path d="M26.5 39H24.5V46H26.5V39Z"/>
        <path d="M21.5 39H19.5V46H21.5V39Z"/>
        <path d="M16.5 39H14.5V46H16.5V39Z"/>
    </symbol>
    <symbol id="display" viewBox="0 0 95 59">
        <path d="M89.6 58.8H5.59999C2.99999 58.8 0.899994 56.7 0.899994 54.1H94.4C94.4 56.6 92.2 58.8 89.6 58.8Z"/>
        <path d="M87.1 51.5H8.09999C7.69999 51.5 7.29999 51.2 7.29999 50.7V5.3C7.29999 3.2 8.99999 1.5 11.1 1.5H84.1C86.2 1.5 87.9 3.2 87.9 5.3V50.8C87.9 51.2 87.5 51.5 87.1 51.5Z" stroke="black" stroke-width="3" stroke-miterlimit="10"/>
    </symbol>
    <symbol id="gpu" viewBox="0 0 58 44">
        <path d="M8 44C7.4478 44 7 43.5522 7 43V2H1C0.4478 2 0 1.5522 0 1C0 0.4478 0.4478 0 1 0H8C8.5522 0 9 0.4478 9 1V43C9 43.5522 8.5522 44 8 44Z"/>
        <path d="M57 37H8C7.4478 37 7 36.5522 7 36V8C7 7.4478 7.4478 7 8 7H57C57.5522 7 58 7.4478 58 8V36C58 36.5522 57.5522 37 57 37ZM9 35H56V9H9V35Z"/>
        <path d="M7.99951 23H4.99951C4.44731 23 3.99951 22.5522 3.99951 22V12C3.99951 11.4478 4.44731 11 4.99951 11H7.99951C8.55171 11 8.99951 11.4478 8.99951 12V22C8.99951 22.5522 8.55181 23 7.99951 23ZM5.99951 21H6.99951V13H5.99951V21Z"/>
        <path d="M20.9995 33C14.9341 33 9.99951 28.0654 9.99951 22C9.99951 15.9346 14.9341 11 20.9995 11C27.0649 11 31.9995 15.9346 31.9995 22C31.9995 28.0654 27.0649 33 20.9995 33ZM20.9995 13C16.0371 13 11.9995 17.0376 11.9995 22C11.9995 26.9624 16.0371 31 20.9995 31C25.9619 31 29.9995 26.9624 29.9995 22C29.9995 17.0376 25.9619 13 20.9995 13Z"/>
        <path d="M20.9995 25C19.3452 25 17.9995 23.6543 17.9995 22C17.9995 20.3457 19.3452 19 20.9995 19C22.6538 19 23.9995 20.3457 23.9995 22C23.9995 23.6543 22.6538 25 20.9995 25ZM20.9995 21C20.4482 21 19.9995 21.4487 19.9995 22C19.9995 22.5513 20.4482 23 20.9995 23C21.5508 23 21.9995 22.5513 21.9995 22C21.9995 21.4487 21.5508 21 20.9995 21Z"/>
        <path d="M43.9995 33C37.9341 33 32.9995 28.0654 32.9995 22C32.9995 15.9346 37.9341 11 43.9995 11C50.0649 11 54.9995 15.9346 54.9995 22C54.9995 28.0654 50.0649 33 43.9995 33ZM43.9995 13C39.0371 13 34.9995 17.0376 34.9995 22C34.9995 26.9624 39.0371 31 43.9995 31C48.9619 31 52.9995 26.9624 52.9995 22C52.9995 17.0376 48.9619 13 43.9995 13Z"/>
        <path d="M50 42H15C14.4478 42 14 41.5522 14 41V36C14 35.4478 14.4478 35 15 35H50C50.5522 35 51 35.4478 51 36V41C51 41.5522 50.5522 42 50 42ZM16 40H49V37H16V40Z"/>
        <path d="M21.9995 42C21.4473 42 20.9995 41.5522 20.9995 41V39C20.9995 38.4478 21.4473 38 21.9995 38C22.5517 38 22.9995 38.4478 22.9995 39V41C22.9995 41.5522 22.5518 42 21.9995 42Z"/>
        <path d="M28.9995 42C28.4473 42 27.9995 41.5522 27.9995 41V39C27.9995 38.4478 28.4473 38 28.9995 38C29.5517 38 29.9995 38.4478 29.9995 39V41C29.9995 41.5522 29.5518 42 28.9995 42Z"/>
        <path d="M35.9995 42C35.4473 42 34.9995 41.5522 34.9995 41V39C34.9995 38.4478 35.4473 38 35.9995 38C36.5517 38 36.9995 38.4478 36.9995 39V41C36.9995 41.5522 36.5518 42 35.9995 42Z"/>
        <path d="M42.9995 42C42.4473 42 41.9995 41.5522 41.9995 41V39C41.9995 38.4478 42.4473 38 42.9995 38C43.5517 38 43.9995 38.4478 43.9995 39V41C43.9995 41.5522 43.5518 42 42.9995 42Z"/>
        <path d="M21 21C20.4478 21 20 20.5522 20 20V17.4141L16.293 13.7071C15.9024 13.3165 15.9024 12.6837 16.293 12.293C16.6836 11.9023 17.3164 11.9024 17.7071 12.293L21.7071 16.293C21.8945 16.4805 22 16.7349 22 17V20C22 20.5522 21.5522 21 21 21Z"/>
        <path d="M11.9995 27C11.7436 27 11.4878 26.9023 11.2925 26.707C10.9019 26.3164 10.9019 25.6836 11.2925 25.2929L15.2925 21.2929C15.48 21.1055 15.7344 21 15.9995 21H18.9995C19.5517 21 19.9995 21.4478 19.9995 22C19.9995 22.5522 19.5517 23 18.9995 23H16.4136L12.7066 26.707C12.5112 26.9023 12.2554 27 11.9995 27Z"/>
        <path d="M24.9995 32C24.7436 32 24.4878 31.9023 24.2925 31.707L20.2925 27.707C20.105 27.5195 19.9995 27.2651 19.9995 27V24C19.9995 23.4478 20.4473 23 20.9995 23C21.5517 23 21.9995 23.4478 21.9995 24V26.5859L25.7065 30.2929C26.0971 30.6835 26.0971 31.3163 25.7065 31.707C25.5112 31.9023 25.2554 32 24.9995 32Z"/>
        <path d="M25.9995 23H22.9995C22.4473 23 21.9995 22.5522 21.9995 22C21.9995 21.4478 22.4473 21 22.9995 21H25.5854L29.2924 17.293C29.683 16.9024 30.3158 16.9024 30.7065 17.293C31.0972 17.6836 31.0971 18.3164 30.7065 18.7071L26.7065 22.7071C26.519 22.8945 26.2646 23 25.9995 23Z"/>
        <path d="M43.9995 25C42.3452 25 40.9995 23.6543 40.9995 22C40.9995 20.3457 42.3452 19 43.9995 19C45.6538 19 46.9995 20.3457 46.9995 22C46.9995 23.6543 45.6538 25 43.9995 25ZM43.9995 21C43.4482 21 42.9995 21.4487 42.9995 22C42.9995 22.5513 43.4482 23 43.9995 23C44.5508 23 44.9995 22.5513 44.9995 22C44.9995 21.4487 44.5508 21 43.9995 21Z"/>
        <path d="M44 21C43.4478 21 43 20.5522 43 20V17.4141L39.293 13.7071C38.9024 13.3165 38.9024 12.6837 39.293 12.293C39.6836 11.9023 40.3164 11.9024 40.7071 12.293L44.7071 16.293C44.8945 16.4805 45 16.7349 45 17V20C45 20.5522 44.5522 21 44 21Z"/>
        <path d="M34.9995 27C34.7436 27 34.4878 26.9023 34.2925 26.707C33.9019 26.3164 33.9019 25.6836 34.2925 25.2929L38.2925 21.2929C38.48 21.1055 38.7344 21 38.9995 21H41.9995C42.5517 21 42.9995 21.4478 42.9995 22C42.9995 22.5522 42.5517 23 41.9995 23H39.4136L35.7066 26.707C35.5112 26.9023 35.2554 27 34.9995 27Z"/>
        <path d="M47.9995 32C47.7436 32 47.4878 31.9023 47.2925 31.707L43.2925 27.707C43.105 27.5195 42.9995 27.2651 42.9995 27V24C42.9995 23.4478 43.4473 23 43.9995 23C44.5517 23 44.9995 23.4478 44.9995 24V26.5859L48.7065 30.2929C49.0971 30.6835 49.0971 31.3163 48.7065 31.707C48.5112 31.9023 48.2554 32 47.9995 32Z"/>
        <path d="M48.9995 23H45.9995C45.4473 23 44.9995 22.5522 44.9995 22C44.9995 21.4478 45.4473 21 45.9995 21H48.5854L52.2924 17.293C52.683 16.9024 53.3158 16.9024 53.7065 17.293C54.0972 17.6836 54.0971 18.3164 53.7065 18.7071L49.7065 22.7071C49.519 22.8945 49.2646 23 48.9995 23Z"/>
    </symbol>
    <symbol id="ssd" viewBox="0 0 60 75">
        <path fill-rule="evenodd" clip-rule="evenodd" d="M0 1.76471C0 0.790094 0.790094 0 1.76471 0H58.2353C59.2098 0 60 0.790094 60 1.76471V72.3529C60 73.3274 59.2098 74.1176 58.2353 74.1176H1.76471C0.790094 74.1176 0 73.3274 0 72.3529V1.76471ZM3.52941 3.52941V70.5882H56.4706V3.52941H3.52941Z"/>
        <path fill-rule="evenodd" clip-rule="evenodd" d="M8.82352 10.5882C8.82352 9.61361 9.61361 8.82352 10.5882 8.82352H38.8235C45.6459 8.82352 51.1765 14.3541 51.1765 21.1765V47.647C51.1765 48.6215 50.3862 49.4117 49.4117 49.4117H21.1765C14.3541 49.4117 8.82352 43.8812 8.82352 37.0588V10.5882ZM12.3529 12.3529V37.0588C12.3529 41.9319 16.3034 45.8823 21.1765 45.8823H47.647V21.1765C47.647 16.3034 43.6966 12.3529 38.8235 12.3529H12.3529Z"/>
        <path fill-rule="evenodd" clip-rule="evenodd" d="M8.82352 56.4706C8.82352 55.4961 9.61361 54.7059 10.5882 54.7059H49.4117C50.3862 54.7059 51.1765 55.4961 51.1765 56.4706V72.3529C51.1765 73.3274 50.3862 74.1176 49.4117 74.1176H10.5882C9.61361 74.1176 8.82352 73.3274 8.82352 72.3529V56.4706ZM12.3529 58.2353V70.5882H47.647V58.2353H12.3529Z"/>
        <path fill-rule="evenodd" clip-rule="evenodd" d="M28.2353 72.3529V56.4706H31.7647V72.3529H28.2353Z"/>
        <path fill-rule="evenodd" clip-rule="evenodd" d="M17.6471 72.3529V56.4706H21.1765V72.3529H17.6471Z"/>
        <path fill-rule="evenodd" clip-rule="evenodd" d="M38.8235 72.3529V56.4706H42.3529V72.3529H38.8235Z"/>
    </symbol>
    <svg id="windows" viewBox="0 0 101 114">
       <path d="M100.375 0.927155L54.5417 8.28151V52.1331H100.375V0.927155ZM46.2083 9.63472L0.375 16.9891V52.1331H46.2083V9.63472ZM0.375 62.1743V97.3183L46.2083 104.673V62.1743H0.375ZM54.5417 62.1743V106.026L100.375 113.38V62.1743H54.5417Z"/>
    </svg>
    <symbol id="ram" viewBox="0 0 61 33">
        <path d="M56.9688 0.799988H4.96875C2.7627 0.799988 0.96875 2.5963 0.96875 4.80418V13.8136C0.96875 14.3664 1.41602 14.8146 1.96875 14.8146C4.61273 14.8875 4.59991 18.7506 1.96869 18.8188C1.41602 18.8188 0.96875 19.2671 0.96875 19.8199V28.8293C0.96875 31.0372 2.7627 32.8335 4.96875 32.8335H34.9688C35.5215 32.8335 35.9688 32.3853 35.9688 31.8324V28.8293C35.9916 27.5101 37.9472 27.5175 37.9688 28.8293V31.8324C37.9688 32.3853 38.416 32.8335 38.9688 32.8335H56.9688C59.1748 32.8335 60.9688 31.0372 60.9688 28.8293V19.8199C60.9688 19.2671 60.5215 18.8188 59.9688 18.8188C58.8662 18.8188 57.9688 17.9209 57.9688 16.8167C57.9688 15.7126 58.8662 14.8146 59.9688 14.8146C60.5215 14.8146 60.9688 14.3664 60.9688 13.8136V4.80418C60.9688 2.5963 59.1748 0.799988 56.9688 0.799988ZM58.9688 12.9391C55.0081 13.957 55.0105 19.6778 58.9688 20.6943V28.8293C58.9688 29.9335 58.0713 30.8314 56.9688 30.8314H55.9688V28.8293C55.9688 28.2765 55.5215 27.8282 54.9688 27.8282C54.416 27.8282 53.9688 28.2765 53.9688 28.8293V30.8314H51.9688V28.8293C51.9688 28.2765 51.5215 27.8282 50.9688 27.8282C50.416 27.8282 49.9688 28.2765 49.9688 28.8293V30.8314H47.9688V28.8293C47.9688 28.2765 47.5215 27.8282 46.9688 27.8282C46.416 27.8282 45.9688 28.2765 45.9688 28.8293V30.8314H43.9688V28.8293C43.9688 28.2765 43.5215 27.8282 42.9688 27.8282C42.416 27.8282 41.9688 28.2765 41.9688 28.8293V30.8314H39.9688V28.8293C39.9688 27.1733 38.623 25.8262 36.9688 25.8262C35.3145 25.8262 33.9688 27.1733 33.9688 28.8293V30.8314H31.9688V28.8293C31.9688 28.2765 31.5215 27.8282 30.9688 27.8282C30.416 27.8282 29.9688 28.2765 29.9688 28.8293V30.8314H27.9688V28.8293C27.9688 28.2765 27.5215 27.8282 26.9688 27.8282C26.416 27.8282 25.9688 28.2765 25.9688 28.8293V30.8314H23.9688V28.8293C23.9688 28.2765 23.5215 27.8282 22.9688 27.8282C22.416 27.8282 21.9688 28.2765 21.9688 28.8293V30.8314H19.9688V28.8293C19.9688 28.2765 19.5215 27.8282 18.9688 27.8282C18.416 27.8282 17.9688 28.2765 17.9688 28.8293V30.8314H15.9688V28.8293C15.9688 28.2765 15.5215 27.8282 14.9688 27.8282C14.416 27.8282 13.9688 28.2765 13.9688 28.8293V30.8314H11.9688V28.8293C11.9688 28.2765 11.5215 27.8282 10.9688 27.8282C10.416 27.8282 9.96875 28.2765 9.96875 28.8293V30.8314H7.96875V28.8293C7.96875 28.2765 7.52148 27.8282 6.96875 27.8282C6.41602 27.8282 5.96875 28.2765 5.96875 28.8293V30.8314H4.96875C3.86621 30.8314 2.96875 29.9335 2.96875 28.8293V20.6943C6.92938 19.6765 6.927 13.9556 2.96875 12.9391V4.80418C2.96875 3.69999 3.86621 2.80208 4.96875 2.80208H56.9688C58.0713 2.80208 58.9688 3.69999 58.9688 4.80418V12.9391Z"/>
        <path d="M14.9688 8.80838H10.9688C9.31445 8.80838 7.96875 10.1555 7.96875 11.8115V19.8199C7.96875 21.4759 9.31445 22.823 10.9688 22.823H14.9688C16.623 22.823 17.9688 21.4759 17.9688 19.8199V11.8115C17.9688 10.1555 16.623 8.80838 14.9688 8.80838ZM15.9688 19.8199C15.9688 20.3717 15.5205 20.8209 14.9688 20.8209H10.9688C10.417 20.8209 9.96875 20.3717 9.96875 19.8199V11.8115C9.96875 11.2597 10.417 10.8105 10.9688 10.8105H14.9688C15.5205 10.8105 15.9688 11.2597 15.9688 11.8115V19.8199Z"/>
        <path d="M26.9688 8.80838H22.9688C21.3145 8.80838 19.9688 10.1555 19.9688 11.8115V19.8199C19.9688 21.4759 21.3145 22.823 22.9688 22.823H26.9688C28.623 22.823 29.9688 21.4759 29.9688 19.8199V11.8115C29.9688 10.1555 28.623 8.80838 26.9688 8.80838ZM27.9688 19.8199C27.9688 20.3717 27.5205 20.8209 26.9688 20.8209H22.9688C22.417 20.8209 21.9688 20.3717 21.9688 19.8199V11.8115C21.9688 11.2597 22.417 10.8105 22.9688 10.8105H26.9688C27.5205 10.8105 27.9688 11.2597 27.9688 11.8115V19.8199Z"/>
        <path d="M38.9688 8.80838H34.9688C33.3145 8.80838 31.9688 10.1555 31.9688 11.8115V19.8199C31.9688 21.4759 33.3145 22.823 34.9688 22.823H38.9688C40.623 22.823 41.9688 21.4759 41.9688 19.8199V11.8115C41.9688 10.1555 40.623 8.80838 38.9688 8.80838ZM39.9688 19.8199C39.9688 20.3717 39.5205 20.8209 38.9688 20.8209H34.9688C34.417 20.8209 33.9688 20.3717 33.9688 19.8199V11.8115C33.9688 11.2597 34.417 10.8105 34.9688 10.8105H38.9688C39.5205 10.8105 39.9688 11.2597 39.9688 11.8115V19.8199Z"/>
        <path d="M50.9688 8.80838H46.9688C45.3145 8.80838 43.9688 10.1555 43.9688 11.8115V19.8199C43.9688 21.4759 45.3145 22.823 46.9688 22.823H50.9688C52.623 22.823 53.9688 21.4759 53.9688 19.8199V11.8115C53.9688 10.1555 52.623 8.80838 50.9688 8.80838ZM51.9688 19.8199C51.9688 20.3717 51.5205 20.8209 50.9688 20.8209H46.9688C46.417 20.8209 45.9688 20.3717 45.9688 19.8199V11.8115C45.9688 11.2597 46.417 10.8105 46.9688 10.8105H50.9688C51.5205 10.8105 51.9688 11.2597 51.9688 11.8115V19.8199Z"/>
        <path d="M21.9688 5.80522C21.9688 5.25239 21.5215 4.80417 20.9688 4.80417H18.9688C18.416 4.80417 17.9688 5.25239 17.9688 5.80522C17.9688 6.35804 18.416 6.80626 18.9688 6.80626H20.9688C21.5215 6.80626 21.9688 6.35804 21.9688 5.80522Z"/>
        <path d="M9.96875 5.80522C9.96875 5.25239 9.52148 4.80417 8.96875 4.80417H6.96875C6.41602 4.80417 5.96875 5.25239 5.96875 5.80522C5.96875 6.35804 6.41602 6.80626 6.96875 6.80626H8.96875C9.52148 6.80626 9.96875 6.35804 9.96875 5.80522Z"/>
        <path d="M12.9687 6.80626H14.9687C16.2829 6.78427 16.2834 4.82616 14.9687 4.80417H12.9687C11.6548 4.8261 11.6539 6.78427 12.9687 6.80626Z"/>
        <path d="M24.9687 6.80626H26.9687C28.2829 6.78427 28.2834 4.82616 26.9687 4.80417H24.9687C23.6548 4.8261 23.6539 6.78427 24.9687 6.80626Z"/>
        <path d="M36.9687 6.80626H38.9687C40.2829 6.78427 40.2834 4.82616 38.9687 4.80417H36.9687C35.6548 4.8261 35.6539 6.78427 36.9687 6.80626Z"/>
        <path d="M48.9687 6.80626H50.9687C52.2829 6.78427 52.2834 4.82616 50.9687 4.80417H48.9687C47.6548 4.8261 47.6539 6.78427 48.9687 6.80626Z"/>
        <path d="M33.9688 5.80522C33.9688 5.25239 33.5215 4.80417 32.9688 4.80417H30.9688C30.416 4.80417 29.9688 5.25239 29.9688 5.80522C29.9688 6.35804 30.416 6.80626 30.9688 6.80626H32.9688C33.5215 6.80626 33.9688 6.35804 33.9688 5.80522Z"/>
        <path d="M45.9688 5.80522C45.9688 5.25239 45.5215 4.80417 44.9688 4.80417H42.9688C42.416 4.80417 41.9688 5.25239 41.9688 5.80522C41.9688 6.35804 42.416 6.80626 42.9688 6.80626H44.9688C45.5215 6.80626 45.9688 6.35804 45.9688 5.80522Z"/>
    </symbol>
</svg>