<svg width="46" height="46" viewBox="0 0 46 46" fill="none" xmlns="http://www.w3.org/2000/svg">
<path d="M34.3135 39H7V11.5381L11.3984 7H39V33.3643L34.3135 39ZM9 37H33.376L37 32.6416V9H12.2461L9 12.3486V37Z" fill="black"/>
<path d="M30 33.5H16C14.3457 33.5 13 32.1543 13 30.5V16.5C13 14.8457 14.3457 13.5 16 13.5H30C31.6543 13.5 33 14.8457 33 16.5V30.5C33 32.1543 31.6543 33.5 30 33.5ZM16 15.5C15.4482 15.5 15 15.9487 15 16.5V30.5C15 31.0513 15.4482 31.5 16 31.5H30C30.5518 31.5 31 31.0513 31 30.5V16.5C31 15.9487 30.5518 15.5 30 15.5H16Z" fill="black"/>
<path d="M46 14.5H39V16.5H46V14.5Z" fill="black"/>
<path d="M46 19.5H39V21.5H46V19.5Z" fill="black"/>
<path d="M46 24.5H39V26.5H46V24.5Z" fill="black"/>
<path d="M46 29.5H39V31.5H46V29.5Z" fill="black"/>
<path d="M7 14.5H0V16.5H7V14.5Z" fill="black"/>
<path d="M7 19.5H0V21.5H7V19.5Z" fill="black"/>
<path d="M7 24.5H0V26.5H7V24.5Z" fill="black"/>
<path d="M7 29.5H0V31.5H7V29.5Z" fill="black"/>
<path d="M31.5 0H29.5V7H31.5V0Z" fill="black"/>
<path d="M26.5 0H24.5V7H26.5V0Z" fill="black"/>
<path d="M21.5 0H19.5V7H21.5V0Z" fill="black"/>
<path d="M16.5 0H14.5V7H16.5V0Z" fill="black"/>
<path d="M31.5 39H29.5V46H31.5V39Z" fill="black"/>
<path d="M26.5 39H24.5V46H26.5V39Z" fill="black"/>
<path d="M21.5 39H19.5V46H21.5V39Z" fill="black"/>
<path d="M16.5 39H14.5V46H16.5V39Z" fill="black"/>
</svg>
