<svg width="58" height="44" viewBox="0 0 58 44" fill="none" xmlns="http://www.w3.org/2000/svg">
<path d="M8 44C7.4478 44 7 43.5522 7 43V2H1C0.4478 2 0 1.5522 0 1C0 0.4478 0.4478 0 1 0H8C8.5522 0 9 0.4478 9 1V43C9 43.5522 8.5522 44 8 44Z" fill="black"/>
<path d="M57 37H8C7.4478 37 7 36.5522 7 36V8C7 7.4478 7.4478 7 8 7H57C57.5522 7 58 7.4478 58 8V36C58 36.5522 57.5522 37 57 37ZM9 35H56V9H9V35Z" fill="black"/>
<path d="M7.99951 23H4.99951C4.44731 23 3.99951 22.5522 3.99951 22V12C3.99951 11.4478 4.44731 11 4.99951 11H7.99951C8.55171 11 8.99951 11.4478 8.99951 12V22C8.99951 22.5522 8.55181 23 7.99951 23ZM5.99951 21H6.99951V13H5.99951V21Z" fill="black"/>
<path d="M20.9995 33C14.9341 33 9.99951 28.0654 9.99951 22C9.99951 15.9346 14.9341 11 20.9995 11C27.0649 11 31.9995 15.9346 31.9995 22C31.9995 28.0654 27.0649 33 20.9995 33ZM20.9995 13C16.0371 13 11.9995 17.0376 11.9995 22C11.9995 26.9624 16.0371 31 20.9995 31C25.9619 31 29.9995 26.9624 29.9995 22C29.9995 17.0376 25.9619 13 20.9995 13Z" fill="black"/>
<path d="M20.9995 25C19.3452 25 17.9995 23.6543 17.9995 22C17.9995 20.3457 19.3452 19 20.9995 19C22.6538 19 23.9995 20.3457 23.9995 22C23.9995 23.6543 22.6538 25 20.9995 25ZM20.9995 21C20.4482 21 19.9995 21.4487 19.9995 22C19.9995 22.5513 20.4482 23 20.9995 23C21.5508 23 21.9995 22.5513 21.9995 22C21.9995 21.4487 21.5508 21 20.9995 21Z" fill="black"/>
<path d="M43.9995 33C37.9341 33 32.9995 28.0654 32.9995 22C32.9995 15.9346 37.9341 11 43.9995 11C50.0649 11 54.9995 15.9346 54.9995 22C54.9995 28.0654 50.0649 33 43.9995 33ZM43.9995 13C39.0371 13 34.9995 17.0376 34.9995 22C34.9995 26.9624 39.0371 31 43.9995 31C48.9619 31 52.9995 26.9624 52.9995 22C52.9995 17.0376 48.9619 13 43.9995 13Z" fill="black"/>
<path d="M50 42H15C14.4478 42 14 41.5522 14 41V36C14 35.4478 14.4478 35 15 35H50C50.5522 35 51 35.4478 51 36V41C51 41.5522 50.5522 42 50 42ZM16 40H49V37H16V40Z" fill="black"/>
<path d="M21.9995 42C21.4473 42 20.9995 41.5522 20.9995 41V39C20.9995 38.4478 21.4473 38 21.9995 38C22.5517 38 22.9995 38.4478 22.9995 39V41C22.9995 41.5522 22.5518 42 21.9995 42Z" fill="black"/>
<path d="M28.9995 42C28.4473 42 27.9995 41.5522 27.9995 41V39C27.9995 38.4478 28.4473 38 28.9995 38C29.5517 38 29.9995 38.4478 29.9995 39V41C29.9995 41.5522 29.5518 42 28.9995 42Z" fill="black"/>
<path d="M35.9995 42C35.4473 42 34.9995 41.5522 34.9995 41V39C34.9995 38.4478 35.4473 38 35.9995 38C36.5517 38 36.9995 38.4478 36.9995 39V41C36.9995 41.5522 36.5518 42 35.9995 42Z" fill="black"/>
<path d="M42.9995 42C42.4473 42 41.9995 41.5522 41.9995 41V39C41.9995 38.4478 42.4473 38 42.9995 38C43.5517 38 43.9995 38.4478 43.9995 39V41C43.9995 41.5522 43.5518 42 42.9995 42Z" fill="black"/>
<path d="M21 21C20.4478 21 20 20.5522 20 20V17.4141L16.293 13.7071C15.9024 13.3165 15.9024 12.6837 16.293 12.293C16.6836 11.9023 17.3164 11.9024 17.7071 12.293L21.7071 16.293C21.8945 16.4805 22 16.7349 22 17V20C22 20.5522 21.5522 21 21 21Z" fill="black"/>
<path d="M11.9995 27C11.7436 27 11.4878 26.9023 11.2925 26.707C10.9019 26.3164 10.9019 25.6836 11.2925 25.2929L15.2925 21.2929C15.48 21.1055 15.7344 21 15.9995 21H18.9995C19.5517 21 19.9995 21.4478 19.9995 22C19.9995 22.5522 19.5517 23 18.9995 23H16.4136L12.7066 26.707C12.5112 26.9023 12.2554 27 11.9995 27Z" fill="black"/>
<path d="M24.9995 32C24.7436 32 24.4878 31.9023 24.2925 31.707L20.2925 27.707C20.105 27.5195 19.9995 27.2651 19.9995 27V24C19.9995 23.4478 20.4473 23 20.9995 23C21.5517 23 21.9995 23.4478 21.9995 24V26.5859L25.7065 30.2929C26.0971 30.6835 26.0971 31.3163 25.7065 31.707C25.5112 31.9023 25.2554 32 24.9995 32Z" fill="black"/>
<path d="M25.9995 23H22.9995C22.4473 23 21.9995 22.5522 21.9995 22C21.9995 21.4478 22.4473 21 22.9995 21H25.5854L29.2924 17.293C29.683 16.9024 30.3158 16.9024 30.7065 17.293C31.0972 17.6836 31.0971 18.3164 30.7065 18.7071L26.7065 22.7071C26.519 22.8945 26.2646 23 25.9995 23Z" fill="black"/>
<path d="M43.9995 25C42.3452 25 40.9995 23.6543 40.9995 22C40.9995 20.3457 42.3452 19 43.9995 19C45.6538 19 46.9995 20.3457 46.9995 22C46.9995 23.6543 45.6538 25 43.9995 25ZM43.9995 21C43.4482 21 42.9995 21.4487 42.9995 22C42.9995 22.5513 43.4482 23 43.9995 23C44.5508 23 44.9995 22.5513 44.9995 22C44.9995 21.4487 44.5508 21 43.9995 21Z" fill="black"/>
<path d="M44 21C43.4478 21 43 20.5522 43 20V17.4141L39.293 13.7071C38.9024 13.3165 38.9024 12.6837 39.293 12.293C39.6836 11.9023 40.3164 11.9024 40.7071 12.293L44.7071 16.293C44.8945 16.4805 45 16.7349 45 17V20C45 20.5522 44.5522 21 44 21Z" fill="black"/>
<path d="M34.9995 27C34.7436 27 34.4878 26.9023 34.2925 26.707C33.9019 26.3164 33.9019 25.6836 34.2925 25.2929L38.2925 21.2929C38.48 21.1055 38.7344 21 38.9995 21H41.9995C42.5517 21 42.9995 21.4478 42.9995 22C42.9995 22.5522 42.5517 23 41.9995 23H39.4136L35.7066 26.707C35.5112 26.9023 35.2554 27 34.9995 27Z" fill="black"/>
<path d="M47.9995 32C47.7436 32 47.4878 31.9023 47.2925 31.707L43.2925 27.707C43.105 27.5195 42.9995 27.2651 42.9995 27V24C42.9995 23.4478 43.4473 23 43.9995 23C44.5517 23 44.9995 23.4478 44.9995 24V26.5859L48.7065 30.2929C49.0971 30.6835 49.0971 31.3163 48.7065 31.707C48.5112 31.9023 48.2554 32 47.9995 32Z" fill="black"/>
<path d="M48.9995 23H45.9995C45.4473 23 44.9995 22.5522 44.9995 22C44.9995 21.4478 45.4473 21 45.9995 21H48.5854L52.2924 17.293C52.683 16.9024 53.3158 16.9024 53.7065 17.293C54.0972 17.6836 54.0971 18.3164 53.7065 18.7071L49.7065 22.7071C49.519 22.8945 49.2646 23 48.9995 23Z" fill="black"/>
</svg>
