<svg xmlns="http://www.w3.org/2000/svg" width="0" height="0">
    <symbol id="btn-prev" viewBox="0 0 24 24">
        <path d="M12 24a12 12 0 1 1 12-12 12.013 12.013 0 0 1-12 12zm0-22a10 10 0 1 0 10 10A10.011 10.011 0 0 0 12 2z"></path>
        <path d="M10.293 16.707 5.586 12l4.707-4.707 1.414 1.414L8.414 12l3.293 3.293-1.414 1.414z"></path>
        <path d="M7 11h11v2H7z"></path>
    </symbol>
    <symbol id="btn-next" viewBox="0 0 24 24">
        <path d="M12 24a12 12 0 1 1 12-12 12.013 12.013 0 0 1-12 12zm0-22a10 10 0 1 0 10 10A10.011 10.011 0 0 0 12 2z"></path>
        <path d="m13.707 16.707-1.414-1.414L15.586 12l-3.293-3.293 1.414-1.414L18.414 12l-4.707 4.707z"></path>
        <path d="M6 11h11v2H6z"></path>
    </symbol>
    <symbol id="close" viewBox="0 0 384 512">
        <path d="M342.6 150.6c12.5-12.5 12.5-32.8 0-45.3s-32.8-12.5-45.3 0L192 210.7 86.6 105.4c-12.5-12.5-32.8-12.5-45.3 0s-12.5 32.8 0 45.3L146.7 256 41.4 361.4c-12.5 12.5-12.5 32.8 0 45.3s32.8 12.5 45.3 0L192 301.3 297.4 406.6c12.5 12.5 32.8 12.5 45.3 0s12.5-32.8 0-45.3L237.3 256 342.6 150.6z"/>
    </symbol>
    <symbol id="down" viewBox="0 0 320 512">
        <path d="M2 334.5c-3.8 8.8-2 19 4.6 26l136 144c4.5 4.8 10.8 7.5 17.4 7.5s12.9-2.7 17.4-7.5l136-144c6.6-7 8.4-17.2 4.6-26s-12.5-14.5-22-14.5l-72 0 0-288c0-17.7-14.3-32-32-32L128 0C110.3 0 96 14.3 96 32l0 288-72 0c-9.6 0-18.2 5.7-22 14.5z"/>
    </symbol>
</svg>