<svg width="60" height="75" viewBox="0 0 60 75" fill="none" xmlns="http://www.w3.org/2000/svg">
<path fill-rule="evenodd" clip-rule="evenodd" d="M0 1.76471C0 0.790094 0.790094 0 1.76471 0H58.2353C59.2098 0 60 0.790094 60 1.76471V72.3529C60 73.3274 59.2098 74.1176 58.2353 74.1176H1.76471C0.790094 74.1176 0 73.3274 0 72.3529V1.76471ZM3.52941 3.52941V70.5882H56.4706V3.52941H3.52941Z" fill="black"/>
<path fill-rule="evenodd" clip-rule="evenodd" d="M8.82352 10.5882C8.82352 9.61361 9.61361 8.82352 10.5882 8.82352H38.8235C45.6459 8.82352 51.1765 14.3541 51.1765 21.1765V47.647C51.1765 48.6215 50.3862 49.4117 49.4117 49.4117H21.1765C14.3541 49.4117 8.82352 43.8812 8.82352 37.0588V10.5882ZM12.3529 12.3529V37.0588C12.3529 41.9319 16.3034 45.8823 21.1765 45.8823H47.647V21.1765C47.647 16.3034 43.6966 12.3529 38.8235 12.3529H12.3529Z" fill="black"/>
<path fill-rule="evenodd" clip-rule="evenodd" d="M8.82352 56.4706C8.82352 55.4961 9.61361 54.7059 10.5882 54.7059H49.4117C50.3862 54.7059 51.1765 55.4961 51.1765 56.4706V72.3529C51.1765 73.3274 50.3862 74.1176 49.4117 74.1176H10.5882C9.61361 74.1176 8.82352 73.3274 8.82352 72.3529V56.4706ZM12.3529 58.2353V70.5882H47.647V58.2353H12.3529Z" fill="black"/>
<path fill-rule="evenodd" clip-rule="evenodd" d="M28.2353 72.3529V56.4706H31.7647V72.3529H28.2353Z" fill="black"/>
<path fill-rule="evenodd" clip-rule="evenodd" d="M17.6471 72.3529V56.4706H21.1765V72.3529H17.6471Z" fill="black"/>
<path fill-rule="evenodd" clip-rule="evenodd" d="M38.8235 72.3529V56.4706H42.3529V72.3529H38.8235Z" fill="black"/>
</svg>
